<svg version="1.1" viewBox="0 0 20 20" xmlns="http://www.w3.org/2000/svg"><rect width="20" height="20" fill="none"/><g transform="matrix(.66269 0 0 .66269 .7807 2.0334)" fill="#fff"><path d="m11 7h-1.51c-0.63 0-1.25 0.3-1.59 0.7l-0.9-2.7h-2.87l-2.39 7h1.69l0.74-2h2.83v4h-5c-1.1 0-2-0.9-2-2v-7c0-1.1 0.9-2 2-2h7c1.1 0 2 0.9 2 2zm-4.49 2h-2.02l1-2.93zm3.49-1h7c1.1 0 2 0.9 2 2v7c0 1.1-0.9 2-2 2h-7c-1.1 0-2-0.9-2-2v-7c0-1.1 0.9-2 2-2zm7.25 5v-1.08h-3.17v-2.17h-1.16v2.17h-3.17v1.08h1.28c0.11 0.850.56 1.85 1.28 2.62-0.87 0.36-1.89 0.62-2.31 0.62-0.01 0.02 0.22 0.97 0.2 1.46 0.84 0 2.21-0.5 3.28-1.15 1.09 0.65 2.48 1.15 3.34 1.15-0.02-0.49 0.2-1.44 0.2-1.46-0.43 0-1.49-0.27-2.38-0.63 0.7-0.77 1.14-1.77 1.25-2.61zm-3.81 1.93c-0.5-0.46-0.85-1.13-1.01-1.93h2.09c-0.17 0.8-0.51 1.47-1 1.93l-0.04 0.03s-0.03-0.02-0.04-0.03z" fill="#fff"/></g></svg>
