<?xml version="1.0" encoding="UTF-8" standalone="no"?>
<!-- Created with Inkscape (http://www.inkscape.org/) -->

<svg
   width="256"
   height="256"
   id="svg2"
   version="1.1"
   inkscape:version="1.1.2 (0a00cf5339, 2022-02-04)"
   sodipodi:docname="icon.svg"
   inkscape:export-filename="./icon-256x256.png"
   inkscape:export-xdpi="96"
   inkscape:export-ydpi="96"
   xmlns:inkscape="http://www.inkscape.org/namespaces/inkscape"
   xmlns:sodipodi="http://sodipodi.sourceforge.net/DTD/sodipodi-0.dtd"
   xmlns:xlink="http://www.w3.org/1999/xlink"
   xmlns="http://www.w3.org/2000/svg"
   xmlns:svg="http://www.w3.org/2000/svg"
   xmlns:rdf="http://www.w3.org/1999/02/22-rdf-syntax-ns#"
   xmlns:cc="http://creativecommons.org/ns#"
   xmlns:dc="http://purl.org/dc/elements/1.1/">
  <defs
     id="defs4">
    <inkscape:path-effect
       effect="spiro"
       id="path-effect4345"
       is_visible="true"
       lpeversion="1" />
    <linearGradient
       id="linearGradient3759-3">
      <stop
         id="stop3761-9"
         offset="0"
         style="stop-color:#c2ced4;stop-opacity:1;" />
      <stop
         id="stop3763-4"
         offset="1"
         style="stop-color:#f4f4fa;stop-opacity:1;" />
    </linearGradient>
    <linearGradient
       id="linearGradient3960">
      <stop
         style="stop-color:#ffffff;stop-opacity:1;"
         offset="0"
         id="stop3962" />
      <stop
         style="stop-color:#cececc;stop-opacity:1;"
         offset="1"
         id="stop3964" />
    </linearGradient>
    <radialGradient
       inkscape:collect="always"
       xlink:href="#linearGradient3960-5"
       id="radialGradient3968-3"
       cx="8.083169"
       cy="4.0239768"
       fx="8.083169"
       fy="4.0239768"
       r="1.6851097"
       gradientUnits="userSpaceOnUse"
       gradientTransform="matrix(-0.07008433,2.2837608,-1.994818,-0.06121722,16.676772,-14.18971)" />
    <linearGradient
       id="linearGradient3960-5">
      <stop
         style="stop-color:#ffffff;stop-opacity:1;"
         offset="0"
         id="stop3962-6" />
      <stop
         style="stop-color:#ffffff;stop-opacity:0;"
         offset="1"
         id="stop3964-5" />
    </linearGradient>
    <linearGradient
       id="linearGradient3759">
      <stop
         id="stop3761"
         offset="0"
         style="stop-color:#c2ced4;stop-opacity:1;" />
      <stop
         id="stop3763"
         offset="1"
         style="stop-color:#f4f4fa;stop-opacity:1;" />
    </linearGradient>
    <linearGradient
       inkscape:collect="always"
       xlink:href="#linearGradient3759-3"
       id="linearGradient3213"
       gradientUnits="userSpaceOnUse"
       gradientTransform="matrix(1.0018383,0,0,0.99444444,-2911.6228,279.93944)"
       x1="1199.15"
       y1="-2.857156"
       x2="1125.6625"
       y2="259.754" />
    <mask
       maskUnits="userSpaceOnUse"
       id="mask4137">
      <g
         id="g4139"
         transform="matrix(0.35848989,0,0,0.35848989,-774.02411,929.34267)"
         style="opacity:0.90322583">
        <path
           transform="translate(0,552.36218)"
           d="m 1760.0001,491.42856 a 365.71429,365.71429 0 0 1 -365.7143,365.71429 365.71429,365.71429 0 0 1 -365.7143,-365.71429 365.71429,365.71429 0 0 1 365.7143,-365.7143 365.71429,365.71429 0 0 1 365.7143,365.7143 z"
           sodipodi:ry="365.71429"
           sodipodi:rx="365.71429"
           sodipodi:cy="491.42856"
           sodipodi:cx="1394.2858"
           id="path4141"
           style="fill:#b3b3b3;fill-opacity:1;stroke:none"
           sodipodi:type="arc" />
        <path
           sodipodi:type="arc"
           style="fill:#f2f2f2;fill-opacity:1;stroke:none"
           id="path4143"
           sodipodi:cx="1394.2858"
           sodipodi:cy="491.42856"
           sodipodi:rx="365.71429"
           sodipodi:ry="365.71429"
           d="m 1760.0001,491.42856 a 365.71429,365.71429 0 0 1 -365.7143,365.71429 365.71429,365.71429 0 0 1 -365.7143,-365.71429 365.71429,365.71429 0 0 1 365.7143,-365.7143 365.71429,365.71429 0 0 1 365.7143,365.7143 z"
           transform="matrix(0.87109375,0,0,0.87109375,182.01787,613.13896)" />
        <text
           id="text4145"
           y="780.93359"
           x="1411.4286"
           style="font-style:normal;font-weight:normal;line-height:0%;font-family:sans-serif;text-align:center;letter-spacing:0px;word-spacing:0px;text-anchor:middle;fill:#000000;fill-opacity:1;stroke:none"
           xml:space="preserve"><tspan
             y="780.93359"
             x="1411.4286"
             id="tspan4147"
             sodipodi:role="line"
             style="font-size:40px;line-height:1.25;font-family:sans-serif">12</tspan></text>
        <text
           id="text4149"
           y="1030.063"
           x="1134.1002"
           style="font-style:normal;font-weight:normal;line-height:0%;font-family:sans-serif;text-align:center;letter-spacing:0px;word-spacing:0px;text-anchor:middle;fill:#000000;fill-opacity:1;stroke:none"
           xml:space="preserve"><tspan
             y="1030.063"
             x="1134.1002"
             id="tspan4151"
             sodipodi:role="line"
             style="font-size:40px;line-height:1.25;font-family:sans-serif">9</tspan></text>
        <text
           transform="translate(0,552.36218)"
           id="text4153"
           y="345.71429"
           x="1182.8571"
           style="font-style:normal;font-weight:normal;line-height:0%;font-family:sans-serif;text-align:center;letter-spacing:0px;word-spacing:0px;text-anchor:middle;fill:#000000;fill-opacity:1;stroke:none"
           xml:space="preserve"><tspan
             y="345.71429"
             x="1182.8571"
             id="tspan4155"
             sodipodi:role="line"
             style="font-size:40px;line-height:1.25;font-family:sans-serif">10</tspan></text>
        <text
           transform="translate(0,552.36218)"
           id="text4157"
           y="260"
           x="1282.8571"
           style="font-style:normal;font-weight:normal;line-height:0%;font-family:sans-serif;text-align:center;letter-spacing:0px;word-spacing:0px;text-anchor:middle;fill:#000000;fill-opacity:1;stroke:none"
           xml:space="preserve"><tspan
             y="260"
             x="1282.8571"
             id="tspan4159"
             sodipodi:role="line"
             style="font-size:40px;line-height:1.25;font-family:sans-serif">11</tspan></text>
        <text
           transform="translate(0,552.36218)"
           id="text4161"
           y="254.28571"
           x="1525.7144"
           style="font-style:normal;font-weight:normal;line-height:0%;font-family:sans-serif;text-align:center;letter-spacing:0px;word-spacing:0px;text-anchor:middle;fill:#000000;fill-opacity:1;stroke:none"
           xml:space="preserve"><tspan
             y="254.28571"
             x="1525.7144"
             id="tspan4163"
             sodipodi:role="line"
             style="font-size:40px;line-height:1.25;font-family:sans-serif">1</tspan></text>
        <path
           inkscape:transform-center-y="-99.531645"
           inkscape:transform-center-x="73.55135"
           inkscape:connector-curvature="0"
           id="path4165"
           d="m 1408.5924,1059.8426 -138.6774,-171.125 5.6692,-27.93829 25.1404,7.0766 116.2931,186.91049 z"
           style="fill:#000000;stroke:none" />
        <path
           inkscape:transform-center-y="-78.346369"
           inkscape:transform-center-x="-45.739088"
           style="fill:#000000;stroke:none"
           d="m 1415.0061,1053.063 63.6584,-147.25313 22.1228,-6.5879 5.4078,18.05289 -84.1052,139.15034 z"
           id="path4167"
           inkscape:connector-curvature="0" />
        <path
           transform="matrix(0.34849706,-0.2307546,0.15527413,0.2345027,727.78943,1081.7158)"
           d="m 1760.0001,491.42856 a 365.71429,365.71429 0 0 1 -365.7143,365.71429 365.71429,365.71429 0 0 1 -365.7143,-365.71429 365.71429,365.71429 0 0 1 365.7143,-365.7143 365.71429,365.71429 0 0 1 365.7143,365.7143 z"
           sodipodi:ry="365.71429"
           sodipodi:rx="365.71429"
           sodipodi:cy="491.42856"
           sodipodi:cx="1394.2858"
           id="path4169"
           style="opacity:0.60931899;fill:#f9f9f9;fill-opacity:1;stroke:none"
           sodipodi:type="arc" />
      </g>
    </mask>
    <clipPath
       id="clipPath4194"
       clipPathUnits="userSpaceOnUse">
      <path
         inkscape:connector-curvature="0"
         id="path4196"
         d="M 0,252 252,252 252,0 0,0 0,252 Z" />
    </clipPath>
  </defs>
  <sodipodi:namedview
     id="base"
     pagecolor="#ffffff"
     bordercolor="#666666"
     borderopacity="1.0"
     inkscape:pageopacity="0.0"
     inkscape:pageshadow="2"
     inkscape:zoom="1.6562746"
     inkscape:cx="-5.4338817"
     inkscape:cy="69.734815"
     inkscape:document-units="px"
     inkscape:current-layer="layer1"
     showgrid="false"
     inkscape:window-width="1920"
     inkscape:window-height="979"
     inkscape:window-x="0"
     inkscape:window-y="0"
     inkscape:window-maximized="1"
     inkscape:snap-grids="true"
     inkscape:pagecheckerboard="1"
     showguides="false" />
  <metadata
     id="metadata7">
    <rdf:RDF>
      <cc:Work
         rdf:about="">
        <dc:format>image/svg+xml</dc:format>
        <dc:type
           rdf:resource="http://purl.org/dc/dcmitype/StillImage" />
      </cc:Work>
    </rdf:RDF>
  </metadata>
  <g
     inkscape:label="Calque 1"
     inkscape:groupmode="layer"
     id="layer1"
     transform="translate(0,-796.36218)">
    <rect
       style="fill:#ffd500;fill-opacity:1;stroke:none"
       id="rect3304"
       width="256"
       height="256"
       x="0"
       y="796.36218"
       ry="0" />
    <g
       id="g8331"
       transform="matrix(0.64391269,0,0,0.64391269,48.966605,329.03812)">
      <rect
         style="opacity:1;fill:#e6e6e6;fill-opacity:1;stroke:#333333;stroke-width:5;stroke-linecap:round;stroke-linejoin:round;stroke-miterlimit:4;stroke-dasharray:none;stroke-dashoffset:64.252;stroke-opacity:1;paint-order:fill markers stroke"
         id="rect860"
         width="214.455"
         height="97.889328"
         x="15.511802"
         y="875.59692"
         ry="48.944664" />
      <path
         id="rect6026"
         style="opacity:1;fill:#333333;fill-opacity:1;stroke:none;stroke-width:5;stroke-linecap:round;stroke-linejoin:round;stroke-miterlimit:4;stroke-dasharray:none;stroke-dashoffset:64.252;stroke-opacity:1;paint-order:fill markers stroke"
         d="M 119.3125,79.234375 V 177.125 h 61.70898 c 27.11535,0 48.94532,-21.82997 48.94532,-48.94531 0,-27.11535 -21.82997,-48.945315 -48.94532,-48.945315 z"
         transform="translate(0,796.36218)" />
      <text
         xml:space="preserve"
         style="font-style:normal;font-variant:normal;font-weight:bold;font-stretch:normal;font-size:58.5743px;line-height:1.25;font-family:'DejaVu Sans';-inkscape-font-specification:'DejaVu Sans Bold';letter-spacing:0px;word-spacing:0px;fill:#b3b3b3;fill-opacity:1;stroke:none;stroke-width:1.46436"
         x="146.46803"
         y="931.87793"
         id="text878"
         transform="scale(0.98487303,1.0153593)"><tspan
           sodipodi:role="line"
           id="tspan876"
           x="146.46803"
           y="931.87793"
           style="fill:#b3b3b3;fill-opacity:1;stroke-width:1.46436">%</tspan></text>
      <g
         aria-label=""
         transform="matrix(0.67138109,0,0,0.69216336,26.580778,294.27874)"
         style="font-style:normal;font-variant:normal;font-weight:bold;font-stretch:normal;font-size:98.4559px;line-height:1.25;font-family:'DejaVu Sans';-inkscape-font-specification:'DejaVu Sans Bold';letter-spacing:0px;word-spacing:0px;fill:#333333;fill-opacity:1;stroke:none;stroke-width:2.4614"
         id="text882">
        <path
           d="m 79.41405,890.83616 h -7.433423 q -2.264487,0 -4.430517,0.98456 -2.116803,0.93533 -3.39673,2.4614 L 59.722863,880.99057 H 45.594437 l -11.765484,34.45958 h 8.319526 l 3.64287,-9.8456 h 13.931514 v 19.69119 H 35.10888 q -4.036693,0 -6.941143,-2.90445 -2.90445,-2.90445 -2.90445,-6.94114 v -34.45958 q 0,-4.03669 2.90445,-6.94114 2.90445,-2.90445 6.941143,-2.90445 h 34.459576 q 4.036694,0 6.941144,2.90445 2.90445,2.90445 2.90445,6.94114 z m -22.103357,9.8456 h -9.94405 l 4.922797,-14.4238 z m 17.18056,-4.9228 h 34.459577 q 4.03669,0 6.94114,2.90445 2.90445,2.90445 2.90445,6.94114 v 34.45958 q 0,4.03669 -2.90445,6.94114 -2.90445,2.90445 -6.94114,2.90445 H 74.491253 q -4.036693,0 -6.941143,-2.90445 -2.90445,-2.90445 -2.90445,-6.94114 v -34.45958 q 0,-4.03669 2.90445,-6.94114 2.90445,-2.90445 6.941143,-2.90445 z m 35.690277,24.61398 v -5.31662 H 94.576263 v -10.68247 h -5.710444 v 10.68247 H 73.260554 v 5.31662 h 6.301179 q 0.443052,3.24905 2.067575,6.69501 1.624523,3.44595 4.233605,6.20272 -3.15059,1.27993 -6.498091,2.16603 -3.298274,0.8861 -4.873569,0.8861 l 0.24614,1.27993 q 0.24614,1.27993 0.492279,3.05214 0.295368,1.7722 0.24614,2.85522 3.052134,0 7.581107,-1.5753 4.528973,-1.62452 8.565666,-4.08592 4.085921,2.4614 8.713355,4.08592 4.62742,1.5753 7.72879,1.5753 -0.0492,-0.68919 0.0492,-1.62453 0.0985,-0.98455 0.24614,-1.91989 0.14769,-0.93533 0.29537,-1.72298 0.14769,-0.83687 0.29537,-1.37838 l 0.0985,-0.54151 q -1.62453,0 -5.07049,-0.8861 -3.44595,-0.93533 -6.645771,-2.21526 2.510627,-2.75676 4.085921,-6.20272 1.62452,-3.44596 2.06758,-6.64578 z m -18.755857,9.501 q -3.741325,-3.44596 -4.972024,-9.501 h 10.288645 q -1.279927,6.10427 -4.922797,9.501 l -0.196912,0.14768 q -0.147684,-0.0984 -0.196912,-0.14768 z"
           style="fill:#333333;fill-opacity:1;stroke-width:2.4614"
           id="path879" />
      </g>
      <path
         style="fill:none;stroke:#333333;stroke-width:5;stroke-linecap:butt;stroke-linejoin:miter;stroke-miterlimit:4;stroke-dasharray:none;stroke-opacity:1"
         d="m 122.63355,876.8778 0.21169,98.30766"
         id="path4343"
         inkscape:path-effect="#path-effect4345"
         inkscape:original-d="m 122.63355,876.8778 c 0.0716,32.68583 0.21169,98.30766 0.21169,98.30766" />
    </g>
  </g>
</svg>
