<svg xmlns="http://www.w3.org/2000/svg" xmlns:xlink="http://www.w3.org/1999/xlink" width="100.5" height="20"><linearGradient id="a" x2="0" y2="100%"><stop offset="0" stop-color="#bbb" stop-opacity=".1"/><stop offset="1" stop-opacity=".1"/></linearGradient><g fill="none" fill-rule="evenodd"><path fill="#555" fill-rule="nonzero" stroke="#555" d="M.5 4.9948C.5 2.5143  0.5215 .5 3.0046 .5H60v19H3.0046C2.518 19.5 .5 19.4857 .5 18.0052V4.9948z"/><path fill="#444" fill-rule="nonzero" stroke="#444" d="M60.5 .5h23v19H60.5z"/><path fill="#0e0" fill-rule="nonzero" stroke="#0e0" d="M83.5 .5h14c2.459 0 2.4905 1.6715 2.4905 3.7805v11.439c0 2.1105 -0.0334 3.7805 -2.4905 3.7805H83.5V.5z"/><path fill="url(#a)" d="M.5 4.9948C.5 2.5143  0.5215 .5 3.0046 .5H97.5c2.459 0 2.4905 1.6715 2.4905 3.7805v11.439c0 2.1105 -0.0334 3.7805 -2.4905 3.7805H3.0046C2.518 19.5 .5 19.4857 .5 18.0052V4.9948z"/></g><g fill="#fff" text-anchor="middle" font-family="DejaVu Sans,Verdana,Geneva,sans-serif,Microsoft YaHei" font-size="110"><text x="390" y="150" fill="#010101" fill-opacity=".3" transform="scale(.1)" textLength="320">Fuzzy</text><text x="390" y="140" transform="scale(.1)" textLength="320">Fuzzy</text><text x="715" y="150" fill="#010101" fill-opacity=".3" transform="scale(.1)" textLength="130">FR</text><text x="715" y="140" transform="scale(.1)" textLength="130">FR</text><text x="920" y="150" fill="#010101" fill-opacity=".3" transform="scale(.1)" textLength="80">0</text><text x="920" y="140" transform="scale(.1)" textLength="80">0</text></g><svg viewBox="-250 -85 1200 1200" preserveAspectRatio="xMinYMid meet" opacity="1"><svg version="1.1" viewBox="0 0 20 20" xmlns="http://www.w3.org/2000/svg"><rect width="20" height="20" fill="none"/><g transform="matrix(.66269 0 0 .66269 .7807 2.0334)" fill="#fff"><path d="m11 7h-1.51c-0.63 0-1.25 0.3-1.59 0.7l-0.9-2.7h-2.87l-2.39 7h1.69l0.74-2h2.83v4h-5c-1.1 0-2-0.9-2-2v-7c0-1.1 0.9-2 2-2h7c1.1 0 2 0.9 2 2zm-4.49 2h-2.02l1-2.93zm3.49-1h7c1.1 0 2 0.9 2 2v7c0 1.1-0.9 2-2 2h-7c-1.1 0-2-0.9-2-2v-7c0-1.1 0.9-2 2-2zm7.25 5v-1.08h-3.17v-2.17h-1.16v2.17h-3.17v1.08h1.28c0.11 0.850.56 1.85 1.28 2.62-0.87 0.36-1.89 0.62-2.31 0.62-0.01 0.02 0.22 0.97 0.2 1.46 0.84 0 2.21-0.5 3.28-1.15 1.09 0.65 2.48 1.15 3.34 1.15-0.02-0.49 0.2-1.44 0.2-1.46-0.43 0-1.49-0.27-2.38-0.63 0.7-0.77 1.14-1.77 1.25-2.61zm-3.81 1.93c-0.5-0.46-0.85-1.13-1.01-1.93h2.09c-0.17 0.8-0.51 1.47-1 1.93l-0.04 0.03s-0.03-0.02-0.04-0.03z" fill="#fff"/></g></svg>
</svg><style id="stylish-1" class="stylish" type="text/css">input, textarea {
   color: black ;
   background: white ;
   border: gray 2px solid;
}
 
/* Uncomment this part if you also want to apply to forms and the like. */
input:not([type="button"]):not([type="checkbox"])
:not([type="submit"]):not([type="reset"]), 
select {
    color: black;
    border: #999 1px solid;
}</style><style id="stylish-2" class="stylish" type="text/css">#innerdocbody {
 font-family:sans-serif !important;
}
</style><style id="stylish-3" class="stylish" type="text/css">#conflicts .monokai .line_content.origin {
	background-color: rgba(96,217,241,0.15) !important;
}
#conflicts .monokai .header.line_content.origin, #conflicts .monokai .diff-line-num.origin {
	background-color: rgba(96,217,241,0.35) !important;
	border-color: rgba(96,217,241,0.35) !important;
}

.code.monokai .line-numbers, .code.monokai .diff-line-num {
	background-color: #272822 !important;
}
.code.monokai, .code.monokai pre.code, .code.monokai .line_holder .line_content {
	background-color: #272822 !important;
	color: #f8f8f2 !important;
}
</style></svg>